<svg xmlns="http://www.w3.org/2000/svg" viewBox="0 0 192 192">
  <rect width="192" height="192" fill="#991188" rx="24"/>
  <rect x="32" y="24" width="128" height="40" fill="white" rx="8"/>
  <rect x="32" y="80" width="24" height="24" fill="white" rx="4"/>
  <rect x="68" y="80" width="24" height="24" fill="white" rx="4"/>
  <rect x="104" y="80" width="24" height="24" fill="white" rx="4"/>
  <rect x="140" y="80" width="24" height="24" fill="white" rx="4"/>
  <rect x="32" y="116" width="24" height="24" fill="white" rx="4"/>
  <rect x="68" y="116" width="24" height="24" fill="white" rx="4"/>
  <rect x="104" y="116" width="24" height="24" fill="white" rx="4"/>
  <rect x="140" y="116" width="24" height="24" fill="white" rx="4"/>
  <rect x="32" y="152" width="24" height="24" fill="white" rx="4"/>
  <rect x="68" y="152" width="24" height="24" fill="white" rx="4"/>
  <rect x="104" y="152" width="24" height="24" fill="white" rx="4"/>
  <rect x="140" y="152" width="24" height="24" fill="white" rx="4"/>
</svg>
